<svg xmlns="http://www.w3.org/2000/svg"  viewBox="0 0 100 100" width="400px" height="400px"><path d="M17.5,89C11.71,89,7,84.29,7,78.5v-53C7,19.71,11.71,15,17.5,15h7.675c0.679-2.863,3.257-5,6.325-5 h10c1.082,0,2.102,0.266,3,0.734c0.898-0.469,1.918-0.734,3-0.734h6c1.082,0,2.102,0.266,3,0.734c0.898-0.469,1.918-0.734,3-0.734 h17c3.068,0,2.821,2.137,3.5,5h4.5C90.29,15,95,19.71,95,25.5v53C95,83.557,91.088,89,82.5,89H17.5z" opacity=".35"/><path fill="#f2f2f2" d="M15.5,87C9.71,87,5,82.29,5,76.5v-53C5,17.71,9.71,13,15.5,13h7.675c0.679-2.863,3.257-5,6.325-5 h45c3.068,0,5.646,2.137,6.325,5H82.5C88.29,13,93,17.71,93,23.5v53C93,81.557,89.088,87,80.5,87H15.5z"/><path fill="#96c362" d="M82.5,19.5h-8v-5h-17v5h-6v-5h-6v5h-6v-5h-10v5h-14c-2.209,0-4,1.791-4,4v53c0,2.209,1.791,4,4,4h65 c4.209,0,6-1.791,6-4v-53C86.5,21.291,84.709,19.5,82.5,19.5z"/><rect width="7" height="8" x="31" y="15" fill="#d9eeff"/><rect width="14" height="8" x="59" y="15" fill="#ff7575"/><rect width="3" height="8" x="47" y="15" fill="#d9eeff"/><path fill="none" stroke="#40396e" stroke-linecap="round" stroke-linejoin="round" stroke-miterlimit="10" stroke-width="3" d="M82.5,19.5h-8v-5h-17v5h-6v-5h-6v5h-6v-5h-10v5h-14c-2.209,0-4,1.791-4,4v53c0,2.209,1.791,4,4,4h65c4.209,0,6-1.791,6-4v-53 C86.5,21.291,84.709,19.5,82.5,19.5z"/><rect width="8" height="3" x="62" y="16" fill="#d9eeff"/><rect width="23" height="23" x="54" y="29" fill="#d9eeff"/><rect width="15" height="15" x="58" y="33" fill="#40396e"/><path fill="#d9eeff" d="M69.5,73L69.5,73c-3.59,0-6.5-2.91-6.5-6.5v0c0-3.59,2.91-6.5,6.5-6.5h0c3.59,0,6.5,2.91,6.5,6.5v0 C76,70.09,73.09,73,69.5,73z"/><rect width="4" height="23" x="37" y="29" fill="#ffe385"/><rect width="4" height="23" x="29" y="29" fill="#ffe385"/><rect width="4" height="23" x="21" y="29" fill="#ffe385"/><rect width="33" height="4" x="21" y="60" fill="#d9eeff"/><rect width="33" height="4" x="21" y="68" fill="#ffe385"/></svg>